<svg width="900" height="650" viewBox="0 0 900 650" fill="none" xmlns="http://www.w3.org/2000/svg">
  <rect width="900" height="650" rx="36" fill="#0F172A"/>
  <rect x="32" y="32" width="836" height="586" rx="28" fill="#111827"/>
  <text x="60" y="82" fill="#94A3B8" font-size="20" font-family="Arial">Dashboard</text>
  <text x="60" y="120" fill="white" font-size="34" font-weight="700" font-family="Arial">Support Overview</text>
  <rect x="744" y="68" width="86" height="34" rx="17" fill="#064E3B"/>
  <text x="770" y="91" fill="#6EE7B7" font-size="15" font-family="Arial">Live</text>

  <rect x="60" y="160" width="235" height="120" rx="22" fill="#1E293B"/>
  <text x="86" y="204" fill="#94A3B8" font-size="18" font-family="Arial">Open Chats</text>
  <text x="86" y="252" fill="white" font-size="42" font-weight="700" font-family="Arial">128</text>

  <rect x="330" y="160" width="235" height="120" rx="22" fill="#1E293B"/>
  <text x="356" y="204" fill="#94A3B8" font-size="18" font-family="Arial">Resolved</text>
  <text x="356" y="252" fill="white" font-size="42" font-weight="700" font-family="Arial">2.4k</text>

  <rect x="600" y="160" width="235" height="120" rx="22" fill="#1E293B"/>
  <text x="626" y="204" fill="#94A3B8" font-size="18" font-family="Arial">CSAT</text>
  <text x="626" y="252" fill="white" font-size="42" font-weight="700" font-family="Arial">96%</text>

  <rect x="60" y="320" width="775" height="82" rx="22" fill="#1E293B"/>
  <circle cx="104" cy="361" r="24" fill="#312E81"/>
  <text x="142" y="367" fill="#E2E8F0" font-size="20" font-family="Arial">New product inquiry from Acme Corp</text>
  <text x="755" y="367" fill="#64748B" font-size="15" font-family="Arial">2m ago</text>

  <rect x="60" y="424" width="775" height="82" rx="22" fill="#1E293B"/>
  <circle cx="104" cy="465" r="24" fill="#312E81"/>
  <text x="142" y="471" fill="#E2E8F0" font-size="20" font-family="Arial">AI resolved billing question</text>
  <text x="755" y="471" fill="#64748B" font-size="15" font-family="Arial">3m ago</text>

  <rect x="60" y="528" width="775" height="58" rx="22" fill="#1E293B"/>
  <circle cx="104" cy="557" r="18" fill="#312E81"/>
  <text x="142" y="563" fill="#E2E8F0" font-size="18" font-family="Arial">Follow-up needed for onboarding</text>
  <text x="755" y="563" fill="#64748B" font-size="15" font-family="Arial">4m ago</text>
</svg>
